HIERARCHY
ROOT Hips
{
  OFFSET -33.9132 29.2015 117.021
  CHANNELS 6 Xposition Yposition Zposition Zrotation Xrotation Yrotation
  JOINT LeftUpLeg
  {
    OFFSET 8.64259 1.95398 -2.38835
    CHANNELS 3 Zrotation Xrotation Yrotation
    JOINT LeftLeg
    {
      OFFSET 43.7702 0 0
      CHANNELS 3 Zrotation Xrotation Yrotation
      JOINT LeftFoot
      {
        OFFSET 40.6238 0 0
        CHANNELS 3 Zrotation Xrotation Yrotation
        JOINT LeftToeBase
        {
          OFFSET 12.7242 0 0
          CHANNELS 3 Zrotation Xrotation Yrotation
          End Site
          {
            OFFSET 0 0 0
          }
        }
      }
    }
  }
  JOINT RightUpLeg
  {
    OFFSET -8.2249 1.95398 -2.59336
    CHANNELS 3 Zrotation Xrotation Yrotation
    JOINT RightLeg
    {
      OFFSET 43.5653 0 0
      CHANNELS 3 Zrotation Xrotation Yrotation
      JOINT RightFoot
      {
        OFFSET 40.6238 0 0
        CHANNELS 3 Zrotation Xrotation Yrotation
        JOINT RightToeBase
        {
          OFFSET 12.7242 0 0
          CHANNELS 3 Zrotation Xrotation Yrotation
          End Site
          {
            OFFSET 0 0 0
          }
        }
      }
    }
  }
  JOINT Spine
  {
    OFFSET 0.165834 0.87714 6.61349
    CHANNELS 3 Zrotation Xrotation Yrotation
    JOINT Spine1
    {
      OFFSET 7.38963 1.71661e-005 0
      CHANNELS 3 Zrotation Xrotation Yrotation
      JOINT Spine2
      {
        OFFSET 11.9445 1.14441e-005 0
        CHANNELS 3 Zrotation Xrotation Yrotation
        JOINT Spine3
        {
          OFFSET 14.7254 4.19617e-005 0
          CHANNELS 3 Zrotation Xrotation Yrotation
          JOINT Spine4
          {
            OFFSET 10.9679 0 0
            CHANNELS 3 Zrotation Xrotation Yrotation
            JOINT RightShoulder
            {
              OFFSET 2.46616 -1.6653 3.69651
              CHANNELS 3 Zrotation Xrotation Yrotation
              JOINT RightArm
              {
                OFFSET 13.0012 0 0
                CHANNELS 3 Zrotation Xrotation Yrotation
                JOINT RightForeArm
                {
                  OFFSET 28.7848 1.62311e-005 0
                  CHANNELS 3 Zrotation Xrotation Yrotation
                  JOINT RightHand
                  {
                    OFFSET 26.5688 1.62095e-005 0
                    CHANNELS 3 Zrotation Xrotation Yrotation
                    End Site
                    {
                      OFFSET 0 0 0
                    }
                  }
                }
              }
            }
            JOINT LeftShoulder
            {
              OFFSET 2.38034 -1.29275 -3.7523
              CHANNELS 3 Zrotation Xrotation Yrotation
              JOINT LeftArm
              {
                OFFSET 16.3182 6.07031e-005 0
                CHANNELS 3 Zrotation Xrotation Yrotation
                JOINT LeftForeArm
                {
                  OFFSET 27.0901 0 0
                  CHANNELS 3 Zrotation Xrotation Yrotation
                  JOINT LeftHand
                  {
                    OFFSET 24.5451 1.51738e-005 0
                    CHANNELS 3 Zrotation Xrotation Yrotation
                    End Site
                    {
                      OFFSET 0 0 0
                    }
                  }
                }
              }
            }
            JOINT Neck
            {
              OFFSET 5.0226 -0.0266342 0
              CHANNELS 3 Zrotation Xrotation Yrotation
              JOINT Head
              {
                OFFSET 6.69364 2.86102e-005 0
                CHANNELS 3 Zrotation Xrotation Yrotation
                End Site
                {
                  OFFSET 0 0 0
                }
              }
            }
          }
        }
      }
    }
  }
}
MOTION
Frames:	12
Frame Time:	0.0416667
-102.458 22.7252 112.891 -9.71188 -11.1317 -89.664 -144.61 25.9899 107.393 -61.1761 22.3563 -15.2158 81.1554 11.4471 -6.80591 34.9719 -3.66276 17.2642 168.889 7.56659 83.4023 -37.6852 -15.8521 0.546105 72.3132 -7.94291 0.795371 30.1565 -1.90814 5.61196 -0.0469274 6.99441 -89.4545 12.883 0.168333 1.07054 1.21163 0.215289 1.06209 -21.32 -0.161183 1.07164 -1.30738 -0.161182 1.07163 87.6812 -26.4101 -113.015 -7.93824 77.2165 76.9043 -52.1084 23.4706 -112.178 -52.9517 18.5031 -41.8223 -89.185 -40.0166 77.7119 -16.8488 -29.7245 -70.8253 43.0616 46.9547 -53.7673 50.9037 -14.5339 -27.1733 33.7887 -2.05498 0.801638 3.93085 -2.25938 0.352846 
-101.146 23.7698 115.025 -9.75714 -7.12977 -89.0479 -147.523 22.4232 107.677 -58.3025 18.0679 -14.4062 67.0144 2.87588 -5.4872 33.1316 -3.75897 14.6325 167.654 11.148 82.3649 -41.622 -15.8846 1.23414 72.6368 -7.86073 1.17665 31.9265 -2.74398 6.28508 0.296681 6.96138 -89.6382 12.9491 0.762681 0.63082 1.27826 0.789717 0.596633 -21.2567 0.537847 0.830855 -1.24405 0.537842 0.830847 87.0966 -24.8435 -115.039 -12.9429 75.7093 71.1445 -52.0566 17.4582 -107.672 -50.3642 16.4648 -39.7913 -89.2153 -40.0072 77.6577 -17.714 -28.2267 -73.754 43.4729 49.1834 -53.0745 50.9548 -13.4013 -24.9022 32.7958 -1.31079 2.67535 4.15639 -2.42696 -1.08758 
-99.2473 24.7251 117.062 -9.71182 -3.12019 -87.9582 -150.373 17.1704 107.115 -50.5087 9.83694 -14.5203 68.6644 3.92716 -5.49314 29.9021 -5.84375 14.7517 167.417 14.5502 81.5005 -45.1271 -18.6719 1.17332 74.1642 -8.60862 1.82388 33.3621 -3.24129 5.96819 0.703522 6.99052 -89.889 12.893 1.45021 0.0479098 1.22289 1.45092 -0.0159885 -21.3181 1.36876 0.481613 -1.30547 1.36876 0.481636 88.5634 -21.4226 -113.764 -12.4451 73.9431 65.3433 -52.8262 14.3625 -104.855 -49.1176 13.8468 -35.3271 -88.8928 -38.226 77.7574 -21.4567 -26.9124 -78.2026 44.3284 51.0153 -52.9036 49.4183 -12.0148 -23.0266 32.9727 -0.951237 2.79159 3.6756 -2.12607 -0.943293 
-96.9107 25.8239 118.798 -10.3454 -2.06976 -88.2777 -151.138 14.2098 105.913 -41.1468 9.49571 -15.8045 76.3128 8.25557 -7.32269 33.8671 -4.966 18.6771 166.082 16.8469 79.732 -47.8621 -20.8564 1.58303 76.0556 -10.0681 0.778606 36.8164 -4.58591 6.17814 0.768603 7.14666 -90.1106 12.5848 1.47406 -0.394247 0.91457 1.45528 -0.458771 -21.6273 1.52439 0.0670902 -1.6147 1.52438 0.0670829 89.5376 -17.9405 -113.514 -13.2258 72.8872 58.5477 -53.1324 10.3538 -101.48 -47.1 11.2793 -31.0544 -89.0373 -39.0156 77.7151 -25.2453 -26.3297 -84.5002 49.5834 54.287 -55.9935 46.9803 -10.438 -20.9795 33.3726 -0.141654 4.83179 3.64662 -2.3176 -2.26793 
-94.9284 27.1005 119.987 -11.265 -1.05492 -88.0581 -151.798 15.1859 105.354 -39.9676 13.6497 -15.0475 79.514 10.5484 -6.83751 37.0923 -3.71849 20.9811 165.25 19.1653 79.1092 -51.5951 -20.6198 1.85206 77.2769 -10.7694 0.72947 40.6274 -5.45874 1.16087 0.870166 7.32354 -90.1044 12.2309 1.68021 -0.396135 0.560946 1.66115 -0.469712 -21.9829 1.72155 0.127298 -1.97028 1.72154 0.127276 89.8474 -17.9157 -112.788 -16.179 71.7882 52.6236 -54.622 5.22027 -97.0023 -44.5303 8.65818 -26.4264 -88.8942 -35.1954 76.9533 -29.1536 -24.7524 -89.0726 56.2362 57.884 -60.2924 45.8602 -8.71951 -17.6389 32.7003 -1.10656 2.31916 4.67895 -2.02173 -0.122381 
-93.5004 28.1012 121.349 -11.9003 1.43914 -88.0289 -151.456 16.5014 105.153 -43.7321 14.3342 -14.3792 82.5229 11.7971 -8.84948 36.7926 -4.12986 21.4997 164.938 22.8922 78.89 -57.2834 -19.4917 1.63182 77.7517 -11.0433 0.247195 38.8318 -4.72729 1.44917 0.946633 7.38192 -90.1187 12.115 1.82568 -0.438223 0.445227 1.80462 -0.518188 -22.1002 1.87294 0.130902 -2.0876 1.87294 0.130913 89.1369 -16.8638 -115.134 -15.7982 69.4603 45.7911 -53.3345 0.693414 -93.4005 -44.8157 7.08922 -22.5064 -88.2965 -33.9388 77.6886 -29.8081 -24.6027 -91.6336 55.2078 59.4854 -58.7212 44.6826 -7.67203 -15.8457 31.731 -0.897964 2.3268 4.89313 -1.84788 -0.673635 
-92.8138 28.0662 122.946 -12.1534 2.05004 -87.6559 -150.969 18.0573 105.027 -47.582 16.1903 -13.9567 83.7832 12.6446 -8.82065 35.302 -5.01106 21.097 163.064 24.3979 78.0855 -59.2253 -18.8076 2.45394 77.311 -10.7708 -0.0720575 39.1874 -4.80766 0.90597 0.928506 7.31341 -90.2602 12.2539 1.72211 -0.712263 0.583898 1.68906 -0.787409 -21.9603 1.85653 -0.161615 -1.94766 1.85652 -0.161617 89.9187 -16.5371 -113.436 -11.4209 69.4247 39.6299 -58.2353 0.526899 -93.2607 -39.5955 4.67611 -18.1593 -87.5605 -32.623 78.7031 -32.2247 -22.4499 -93.418 58.7984 61.4645 -61.1874 43.7758 -7.05792 -14.74 32.3732 -0.108262 2.73586 4.55638 -1.32812 -1.30555 
-92.6076 26.8547 124.508 -12.5439 2.7178 -86.9982 -149.471 19.4697 105.587 -52.2381 16.8886 -13.919 83.0729 12.0496 -9.16446 35.5742 -4.86993 21.2135 162.053 23.7518 76.9694 -58.9123 -20.1432 2.73025 77.0031 -10.6031 0.104817 40.531 -5.33254 0.451 1.02285 7.19897 -90.3177 12.4841 1.881 -0.851771 0.814151 1.84168 -0.933739 -21.7316 2.05001 -0.246846 -1.71893 2.04999 -0.246875 91.5709 -15.3184 -110.023 -2.86185 67.4193 39.1469 -58.5261 5.67292 -96.7388 -37.2763 3.64392 -16.1898 -88.8641 -30.2772 75.5621 -32.689 -22.861 -93.031 58.1023 62.754 -60.0602 43.1055 -6.72128 -14.2387 34.2683 -1.09425 -0.753589 2.63135 -0.643463 1.27844 
-92.7115 25.0577 126.041 -12.6472 1.90761 -86.7702 -148.844 18.9396 105.692 -53.7656 18.0238 -13.8591 83.8024 12.4891 -9.07674 35.1487 -5.10649 21.0641 160.368 22.3398 74.8102 -57.5122 -21.7769 3.4367 77.6267 -10.8049 1.04042 39.8696 -4.99786 0.0884031 1.01643 7.03429 -90.407 12.8144 1.82359 -1.03175 1.14427 1.77646 -1.11103 -21.4003 2.04935 -0.435798 -1.38766 2.04935 -0.435828 92.7066 -11.3131 -109.373 3.44832 63.8003 56.6508 -53.401 16.474 -106.258 -39.9062 5.40189 -20.2233 -87.2662 -30.6218 78.7176 -34.1582 -16.7694 -94.1585 60.5803 63.2535 -62.5833 42.4249 -6.48745 -13.9226 34.2291 -0.538946 0.857401 2.68103 -0.894224 -0.312537 
-92.9808 23.4909 127.386 -12.4147 0.218347 -86.4109 -150.43 16.0586 105.095 -50.9881 16.8541 -13.2322 86.8478 13.9061 -10.122 34.9352 -4.8916 20.1928 158.395 20.8424 72.9302 -55.5538 -23.5432 4.72036 77.5752 -10.6612 1.44134 39.1434 -4.64436 -0.162718 1.05526 6.87231 -90.3844 13.1389 1.90949 -1.00526 1.4689 1.86341 -1.08837 -21.0768 2.1233 -0.384701 -1.06417 2.12331 -0.3847 92.18 -14.7985 -108.795 10.2096 52.2425 72.8806 -45.7945 22.1428 -115.378 -56.2684 7.37313 -19.0259 -87.5911 -25.3372 76.5001 -38.5941 -13.8427 -94.1504 63.3292 64.4472 -64.4991 43.0577 -6.00622 -12.3969 33.4389 -2.27049 -2.26032 3.24914 -1.05803 2.28665 
-92.8173 22.6835 128.753 -11.839 -1.86571 -87.1677 -151.575 14.5078 102.722 -50.5319 14.7678 -12.7793 89.0947 15.1653 -10.4177 34.7664 -5.336 20.9735 157.093 21.0191 69.9672 -54.0268 -27.4191 5.16614 76.6025 -10.1316 1.53575 40.7065 -5.33433 -0.171178 1.10673 6.78529 -90.4871 13.3147 1.96081 -1.22284 1.64461 1.90511 -1.30797 -20.9011 2.23763 -0.576772 -0.888403 2.23764 -0.576795 89.2006 -22.2471 -111.899 5.25014 55.3574 83.9528 -45.287 23.7185 -117.125 -63.9122 9.68678 -20.8517 -86.0639 -27.7704 80.3308 -38.5642 -6.79277 -96.4895 63.581 65.0716 -65.111 43.9637 -5.77313 -11.4122 33.5989 -2.39808 0.774863 2.93878 -2.52667 1.34413 
-92.3178 22.0603 130.274 -11.0622 -6.21161 -88.3635 -153.629 14.5483 99.5612 -51.9872 14.6796 -11.5915 89.7915 15.7325 -10.1899 35.5955 -4.96132 21.4714 154.087 21.3357 65.9435 -51.8861 -30.9535 6.62558 75.8801 -9.83313 1.51821 42.9552 -6.38581 0.463011 0.980744 6.79426 -90.6293 13.296 1.64231 -1.46657 1.6252 1.57617 -1.53743 -20.9153 2.00712 -0.905122 -0.902605 2.00711 -0.905136 89.1636 -23.1322 -111.519 -5.45842 64.2665 94.1804 -42.9562 23.2846 -118.577 -62.0357 14.3147 -28.924 -85.4928 -28.3254 81.5872 -40.2667 -4.19386 -99.2371 61.9147 64.6925 -63.5725 43.6298 -5.81131 -11.6832 32.9895 -2.72826 3.2249 3.7933 -3.8249 1.88322 
